<svg width="12" height="12" viewBox="0 0 12 12" fill="none" xmlns="http://www.w3.org/2000/svg">
<path fill-rule="evenodd" clip-rule="evenodd" d="M6.44985 0.75002C7.64985 0.82502 8.77485 1.42502 9.59985 2.25002C10.5748 3.30002 11.0998 4.57502 11.0998 6.07502C11.0998 7.27502 10.6498 8.40002 9.89985 9.37502C9.14985 10.275 8.09985 10.95 6.89985 11.175C5.69985 11.4 4.49985 11.25 3.44985 10.65C2.39985 10.05 1.57485 9.15002 1.12485 8.02502C0.674846 6.90002 0.599845 5.62502 0.974846 4.50002C1.34985 3.30002 2.02485 2.32502 3.07485 1.65002C4.04985 0.97502 5.24985 0.67502 6.44985 0.75002ZM6.82485 10.425C7.79985 10.2 8.69985 9.67502 9.37485 8.85002C9.97485 8.02502 10.3498 7.05002 10.2748 6.00002C10.2748 4.80002 9.82485 3.60002 8.99985 2.77502C8.24985 2.02502 7.34985 1.57502 6.29985 1.50002C5.32485 1.42502 4.27485 1.65002 3.44985 2.25002C2.62485 2.85002 2.02485 3.67502 1.72485 4.72502C1.42485 5.70002 1.42485 6.75002 1.87485 7.72502C2.32485 8.70002 2.99985 9.45002 3.89985 9.97502C4.79985 10.5 5.84985 10.65 6.82485 10.425ZM5.92485 5.62502L7.72485 3.75002L8.24985 4.27502L6.44985 6.15002L8.24985 8.02502L7.72485 8.55002L5.92485 6.67502L4.12485 8.55002L3.59985 8.02502L5.39985 6.15002L3.59985 4.27502L4.12485 3.75002L5.92485 5.62502Z" fill="#EB001B"/>
</svg>
