<svg width="12" height="12" viewBox="0 0 12 12" fill="none" xmlns="http://www.w3.org/2000/svg">
<path d="M6.00002 0.666748C4.94519 0.666748 3.91404 0.979543 3.03698 1.56558C2.15992 2.15161 1.47633 2.98456 1.07267 3.9591C0.668998 4.93364 0.56338 6.006 0.769168 7.04056C0.974956 8.07513 1.48291 9.02544 2.22879 9.77132C2.97467 10.5172 3.92498 11.0251 4.95954 11.2309C5.99411 11.4367 7.06646 11.3311 8.041 10.9274C9.01554 10.5238 9.84849 9.84018 10.4345 8.96312C11.0206 8.08606 11.3334 7.05491 11.3334 6.00008C11.3334 4.58559 10.7715 3.22904 9.77126 2.22885C8.77106 1.22865 7.41451 0.666748 6.00002 0.666748ZM6.00002 10.6667C5.07704 10.6667 4.17479 10.3931 3.40736 9.88027C2.63993 9.36749 2.04179 8.63866 1.68858 7.78594C1.33538 6.93322 1.24296 5.9949 1.42302 5.08966C1.60309 4.18442 2.04755 3.35289 2.70019 2.70025C3.35284 2.0476 4.18436 1.60315 5.0896 1.42308C5.99485 1.24302 6.93316 1.33543 7.78588 1.68864C8.6386 2.04185 9.36743 2.63999 9.88021 3.40742C10.393 4.17485 10.6667 5.0771 10.6667 6.00008C10.6667 7.23776 10.175 8.42474 9.29985 9.29991C8.42468 10.1751 7.2377 10.6667 6.00002 10.6667Z" fill="#027700"/>
<path d="M9.3328 4.03339C9.27035 3.97131 9.18587 3.93646 9.0978 3.93646C9.00974 3.93646 8.92526 3.97131 8.8628 4.03339L5.1628 7.71673L3.1628 5.71673C3.1018 5.65086 3.01714 5.61193 2.92743 5.60849C2.83773 5.60506 2.75033 5.63739 2.68447 5.69839C2.61861 5.75939 2.57968 5.84406 2.57624 5.93376C2.5728 6.02347 2.60514 6.11086 2.66614 6.17673L5.1628 8.66673L9.3328 4.50673C9.36405 4.47574 9.38884 4.43887 9.40577 4.39825C9.42269 4.35763 9.4314 4.31406 9.4314 4.27006C9.4314 4.22606 9.42269 4.18249 9.40577 4.14187C9.38884 4.10125 9.36405 4.06438 9.3328 4.03339Z" fill="#027700"/>
</svg>
